<svg xmlns="http://www.w3.org/2000/svg" width="332.62" height="81.5" viewBox="0 0 332.62 81.5">
  <defs>
    <style>
      .cls-1 {
        fill-rule: evenodd;
      }
    </style>
  </defs>
  <path id="logo_flashback.svg" class="cls-1" d="M3443.75,601.055c4.33-4.194,8.66-7.077,12.87-7.6,8.54-.786,7.73,7.207-1.05,8.649A25.61,25.61,0,0,1,3443.75,601.055ZM3405.73,627c-1.88.524-3.98,4.324-2.11,3.8,5.62-.131,10.41-0.262,14.51-0.262l-0.12.262c-5.61,9.435-18.02,35.382-32.76,34.989-15.21-.525-16.38-21.1-13.69-27.65,0.47-1.18-2.81-3.407-4.33.917-2.34,6.29-.7,29.222,16.62,30.14,21.06,1.048,32.76-28.7,37.79-37.216l0.82-1.442c5.15,0.131,8.66.393,10.53,0.918,0.35,0.131,1.4-3.408,0-3.932a71.849,71.849,0,0,0-8.19-.786c4.21-6.945,9.83-15.594,15.68-22.146,9.36,2.752,15.56,1.31,19.18-.262,10.89-4.849,7.61-16.643-4.79-13.891-5.74,1.18-10.65,4.325-15.33,9.042-9.71-3.931-19.77-10.614-35.34-10.09-11.7.393-20.82,7.338-21.52,23.194-0.12,2.752,4.09,6.29,3.86,3.932-0.59-7.208,2.92-23.326,17.43-23.588,12.75-.262,23.52,6.552,32.29,10.09-5.26,6.159-10.29,14.153-15.79,23.588C3414.15,626.477,3407.48,626.477,3405.73,627Zm33.45,27.388c10.07-10.09,41.19-42.589,35.81-50.845-1.06-1.572-4.57-1.7-9.83,2.1-6.44,4.587-22.35,21.36-28.2,42.2-1.75,6.29-4.21,19.918,5.03,20.311,5.62,0.262,15.33-10.614,15.91-11.269,0.47-.656.71-4.587-0.7-3.276-8.66,8.648-12.63,10.876-15.21,10.745-1.99-.131-3.27-1.31-3.27-5.373A21.174,21.174,0,0,1,3439.18,654.389Zm0.94-4.456c4.33-14.807,16.85-32.891,24.69-39.574,3.62-3.276,5.73-3.932,6.43-3.145C3474.75,611.014,3450.77,639.319,3440.12,649.933Zm58.74,6.946c0.58-.656.81-4.587-0.59-3.276a47.106,47.106,0,0,1-10.3,7.993c-10.76,6.028-14.27,1.311-6.78-11.531,2.69-3.276,5.73-6.684,5.73-7.077,0-.655-2.46-3.014-3.39-2.49a11.588,11.588,0,0,0-2.23,2.621,6.087,6.087,0,0,0-5.85-5.373c-3.16,0-11.7,3.015-18.01,12.974-6.32,10.09-3.4,17.69.93,18.477,3.75,0.655,6.91-.262,15.68-10.484-1.76,6.552,1.87,11.139,7.84,10.091C3489.26,667.493,3498.27,657.534,3498.86,656.879Zm-22.24-6.552c-0.81.786-11.46,15.856-17.2,14.152-6.08-1.7,5.04-22.539,15.57-22.539,4.79,0,2.69,6.552,2.69,6.552h0.11Zm28.9,16.9a4.386,4.386,0,0,1-1.87.131c-4.45-.393-7.02-7.469-4.8-11.139C3499.09,655.83,3500.14,664.479,3505.52,667.231Zm3.51-26.733a4.376,4.376,0,0,1-.11-3.014c1.17-5.11,4.09-5.5,4.32-4.062C3513.48,634.47,3511.61,637.353,3509.03,640.5Zm-9.83,10.746c-1.05-1.442-4.32-.655-4.44,6.159-0.24,7.207,3.86,14.284,10.29,13.366a11.251,11.251,0,0,0,5.39-2.621c6.43-1.048,14.86-10.614,15.32-11.269,0.59-.656.82-4.587-0.58-3.276-5.38,5.372-8.89,8.255-11.47,9.7a20.53,20.53,0,0,0,1.52-9.042c-0.11-4.98-2.92-7.994-4.79-10.877a48.06,48.06,0,0,0,5.38-7.731c1.87-3.932,1.75-6.421-.94-6.945s-7.6,3.538-8.42,8.386a10.308,10.308,0,0,0,.58,5.635C3504.35,645.871,3501.43,649.016,3499.2,651.244Zm10.42,12.973c-3.86-.655-7.37-6.552-9.13-10.221,2.22-2.228,5.15-5.242,7.84-8.256,1.52,3.276,3.39,6.683,3.39,11.008A13.469,13.469,0,0,1,3509.62,664.217Zm24.68-23.85a107.072,107.072,0,0,1,12.64-22.277c11.7-16.38,15.45-16.773,16.38-15.725C3566.13,605.117,3544.95,629.622,3534.3,640.367Zm-3.15,8.125a360.325,360.325,0,0,0,31.7-35.906c8.43-10.876,4.8-19.132-6.43-11.007-8.08,5.9-18.72,19.787-36.04,60.279-1.52,3.276.12,7.732,1.17,6.684,1.05-1.18,10.53-16.25,21.06-24.768,6.67-5.5,8.07-1.572,3.28,4.849-4.33,5.766-6.09,7.863-5.74,12.449,0.36,4.062,3.16,6.945,6.79,7.076,5.73,0.262,15.33-10.614,15.91-11.269s0.82-4.587-.58-3.276c-8.78,8.648-12.64,10.876-15.21,10.745-2.46-.262-5.5-2.883-0.94-9.3,4.45-6.552,9.36-14.283,6.32-17.3-3.63-3.669-14.63,4.587-21.65,11.794Zm51.36,2.883c-1.29-.524-2.23-2.883-0.47-6.683C3584.61,638.795,3588.59,642.857,3582.51,651.375Zm-19.31,3.8c20.71-20.049,34.75-38.919,38.15-45.472,5.61-10.352.81-10.221-4.57-7.6-12.4,6.028-33.81,31.45-37.21,53.99-1.17,7.6,4.22,12.58,7.26,12.317,6.9-.655,16.5-10.352,21.06-21.228,3.74-8.78-2.11-13.367-7.84-5.635-3.63,4.717-2.46,11.794-.82,14.021-5.26,6.159-9.83,8.78-12.75,8.78C3562.73,664.217,3561.91,660.679,3563.2,655.175Zm1.52-5.242c4.68-12.317,15.91-29.746,27.38-40.492,8.66-8.124,10.41-5.9,3.98,3.407C3593.86,615.993,3580.05,633.291,3564.72,649.933Zm66.93,6.946c0.58-.656.82-4.587-0.59-3.276a47.079,47.079,0,0,1-10.29,7.993c-10.77,6.028-14.28,1.311-6.79-11.531,2.69-3.276,5.73-6.684,5.73-7.077,0-.655-2.45-3.014-3.39-2.49a11.39,11.39,0,0,0-2.22,2.621c-0.59-3.276-3.04-5.373-5.85-5.373-3.16,0-11.7,3.015-18.02,12.974-6.32,10.09-3.39,17.69.93,18.477,3.75,0.655,6.91-.262,15.68-10.484-1.75,6.552,1.87,11.139,7.84,10.091C3622.05,667.493,3631.06,657.534,3631.65,656.879Zm-22.23-6.552c-0.82.786-11.47,15.856-17.2,14.152-6.09-1.7,5.03-22.539,15.56-22.539,4.8,0,2.69,6.552,2.69,6.552h0.12Zm20,12.842c2.34,4.455,7.37,5.9,13.46,4.848,7.25-1.048,15.33-10.483,15.91-11.138,0.47-.656.7-4.587-0.7-3.276-18.72,18.608-31.59,10.745-23.17-3.276,3.28-5.373,9.6-10.091,11.94-10.746,3.27-.917,4.44,2.883,1.4,5.766-1.75,1.572.47,3.931,1.05,3.407,0.94-.786,4.22-3.8,4.92-6.945,1.17-6.29-8.08-8.387-17.55.262C3626.26,651.506,3627.67,659.631,3629.42,663.169Zm52.77-45.6c2.92-3.931,11.35-14.939,12.75-12.973,1.88,2.621-6.43,12.056-9.36,15.594-7.37,9.042-14.27,16.38-18.02,20.18A215.918,215.918,0,0,1,3682.19,617.566Zm-14.98,36.168a77.213,77.213,0,0,1,14.39-10.746c3.75-2.1,7.61-1.31,4.33,3.407C3682.77,650.982,3672.13,657.8,3667.21,653.734Zm28.08-40.1c8.31-12.449,1.41-17.691-7.6-9.566-9.6,8.779-31.01,47.568-36.51,61.852-1.28,3.276,2.34,2.883,3.16,2.1a154.688,154.688,0,0,1,11.24-12.58c1.98,4.456,6.78,12.711,15.91,12.711,5.96,0,15.44-10.614,15.91-11.269,0.59-.656.82-4.587-0.58-3.276-8.78,8.648-12.41,10.745-15.22,10.614-5.73,0-9.59-5.5-8.07-6.028a28.026,28.026,0,0,0,15.68-10.614c6.9-9.959-1.52-11.794-8.19-8.518-8.07,3.931-16.97,12.187-20.48,15.594,0.24-.655.59-1.441,0.94-2.228C3662.18,651.637,3686.64,626.739,3695.29,613.635Z" transform="translate(-3366.41 -589.375)"/>
</svg>
