<svg xmlns="http://www.w3.org/2000/svg" xmlns:xlink="http://www.w3.org/1999/xlink" width="268.28" height="94" viewBox="0 0 268.28 94">
  <defs>
    <style>
      .cls-1 {
        font-size: 78px;
        font-family: "Dancing Script";
      }

      .cls-1, .cls-2 {
        fill: #6c3c97;
      }

      .cls-2 {
        fill-rule: evenodd;
      }

      .cls-3 {
        font-size: 18px;
        fill: #fff;
        font-family: Lato;
        font-weight: 300;
      }
    </style>
    <image id="image"/>
  </defs>
  <use id="Icon_for_User_Profile.png" data-name="Icon for User Profile.png" x="-3419" y="-590" xlink:href="#image"/>
  <use id="Icon_for_Hamburger_Menu.png" data-name="Icon for Hamburger Menu.png" x="NaN" y="NaN" transform="matrix(NaN, NaN, NaN, NaN, 0, 0)" xlink:href="#image"/>
  <use id="Icon_for_Settings.png" data-name="Icon for Settings.png" x="NaN" y="NaN" transform="matrix(NaN, NaN, NaN, NaN, 0, 0)" xlink:href="#image"/>
  <text id="Flashback" class="cls-1" x="-4.643" y="63.149">Flashback</text>
  <path id="Flashback_copy" data-name="Flashback copy" class="cls-2" d="M3426.22,660.749q0.15-8.126,4.05-22.8l3.43-13.017q6.48-.174,9.01-0.349a11.151,11.151,0,0,0,3.75-.743,4.914,4.914,0,0,0,2.06-1.966q-1.71-.086-6.63-0.611-3.27-.523-7.02-0.786,5.31-18.783,7.49-24.723,3.825,0.438,5.77.873a39.774,39.774,0,0,0,5.31.612,7.286,7.286,0,0,0,4.13-1.311,22.825,22.825,0,0,0,4.68-4.8,18.329,18.329,0,0,1-5.77.873,38.069,38.069,0,0,1-4.21-.262l-3.12-.349a67.462,67.462,0,0,0-8.19-.7,28.889,28.889,0,0,0-10.84,1.965,18.758,18.758,0,0,0-7.77,5.461,12.278,12.278,0,0,0-2.84,7.949c0,3.9,1.71,6.174,5.15,6.814a23.35,23.35,0,0,1-1.02-6.9,14.785,14.785,0,0,1,1.05-6.115,6.847,6.847,0,0,1,3.75-3.407,20.429,20.429,0,0,1,7.68-1.136c0.68,0,1.69.059,3.04,0.175q-3.975,9.261-9.04,24.9-9.915.351-10.22,6.116l2.65-.437q4.05-.611,6.01-0.786c-0.53,1.631-.94,2.854-1.25,3.669q-3.285,10.047-4.84,15.637a35.853,35.853,0,0,0-1.56,9.26,9.683,9.683,0,0,0,1.02,4.98q1.005,1.658,4.29,1.922h0Zm31.19-4.98q7.965,0,14.67-16.074l-1.17-.7a46.009,46.009,0,0,1-5.34,9.872q-3.015,4.107-5.89,4.106-3.435,0-3.44-6.727a45.546,45.546,0,0,1,1.02-8.823,57.364,57.364,0,0,0,10.14-13.017,100.1,100.1,0,0,0,7.68-15.856q2.925-7.817,2.93-11.837a13.244,13.244,0,0,0-.74-4.324c-0.5-1.427-1.11-2.141-1.84-2.141q-2.655,0-8.62,10.833a167.969,167.969,0,0,0-10.8,24.33q-4.83,13.5-4.84,21.359a12.248,12.248,0,0,0,1.53,6.552,5.147,5.147,0,0,0,4.71,2.446h0Zm0.55-21.316a122.93,122.93,0,0,1,5.62-16.511,134.773,134.773,0,0,1,6.98-14.633q3.39-5.982,4.48-5.984c0.37,0,.55.467,0.55,1.4q0,2.971-2.58,9.653a107.073,107.073,0,0,1-6.66,13.978,68.5,68.5,0,0,1-8.39,12.1h0Zm14.12,22.8a8.4,8.4,0,0,0,5.5-2.446,40.917,40.917,0,0,0,6.28-7.687,15.1,15.1,0,0,0-.24,2.533,6.631,6.631,0,0,0,1.45,4.324,5.04,5.04,0,0,0,4.17,1.791,10.185,10.185,0,0,0,5.69-2.009,22.209,22.209,0,0,0,5.54-5.635,33.191,33.191,0,0,0,4.21-8.255L3503.9,639a44.142,44.142,0,0,1-6.78,10.177q-3.435,3.627-5.7,3.626a2.148,2.148,0,0,1-1.99-1.18,5.357,5.357,0,0,1-.66-2.664,9.9,9.9,0,0,1,.78-3.625,47.172,47.172,0,0,1,2.11-4.5c0.1-.174.4-0.771,0.89-1.79a5.886,5.886,0,0,0,.74-2.228,1.662,1.662,0,0,0-1.05-1.441,6.785,6.785,0,0,0-2.07-.743,161.391,161.391,0,0,1-9.04,13.5q-4.215,5.548-7.34,5.547-2.1,0-2.1-3.407a26.864,26.864,0,0,1,2.53-10.221,37.59,37.59,0,0,1,6.32-10.221q3.78-4.279,7.22-4.28a3.251,3.251,0,0,1,2.88,1.354,6.059,6.059,0,0,1,.94,3.538,12.669,12.669,0,0,1-.39,3.057,4.184,4.184,0,0,0,2.81-.873,3.641,3.641,0,0,0,1.01-2.883,6.084,6.084,0,0,0-2.03-4.718,7.267,7.267,0,0,0-5.07-1.834q-4.83,0-9.9,4.455a36.922,36.922,0,0,0-8.39,10.833q-3.315,6.378-3.31,11.531a8.04,8.04,0,0,0,1.6,5.373,5.2,5.2,0,0,0,4.17,1.878h0Zm37.44,0.35a10.562,10.562,0,0,0,6.16-1.835,10.146,10.146,0,0,0,3.82-5.416,12.705,12.705,0,0,0,6.63-3.232,15.659,15.659,0,0,0,4.29-7.164l-0.7-.874a23.38,23.38,0,0,1-4.6,7.033,10.294,10.294,0,0,1-5.23,2.839,18.93,18.93,0,0,0,.47-4.281,27.665,27.665,0,0,0-.59-5.678q-0.585-2.794-1.67-6.552c-0.63-2.1-1.08-3.8-1.37-5.111a17.83,17.83,0,0,1-.43-3.712,11.212,11.212,0,0,1,.24-2.4,9.419,9.419,0,0,0,.23-1.441,1.1,1.1,0,0,0-.31-0.83,1.294,1.294,0,0,0-.94-0.306,2.55,2.55,0,0,0-2.14,1.485,8.767,8.767,0,0,0-.9,4.456v1.048a51.123,51.123,0,0,1-7.72,12.667,6.3,6.3,0,0,1-1.52.874,6.608,6.608,0,0,0-2.38,2.053q-1.095,1.441-1.09,4.935a13.847,13.847,0,0,0,2.34,8.038q2.34,3.406,7.41,3.407h0Zm5.46-8.736a12.778,12.778,0,0,1-5.89-3.145,15.135,15.135,0,0,1-3.78-5.417,60.855,60.855,0,0,0,7.56-11.356c0.1,0.7.39,2.214,0.86,4.542q0.78,3.408,1.17,6.028a35.57,35.57,0,0,1,.39,5.242,31.772,31.772,0,0,1-.31,4.106h0Zm-5.31,5.678a5.381,5.381,0,0,1-4.64-2.577,10.22,10.22,0,0,1-1.75-5.9q0-2.969,1.71-3.057a15.045,15.045,0,0,0,3.9,4.5,13.938,13.938,0,0,0,5.7,2.751q-1.335,4.283-4.92,4.281h0Zm21.22,1.922c0.88,0,1.69-.757,2.42-2.271s1.71-3.96,2.96-7.339a73.091,73.091,0,0,1,4.64-10.7q2.145-3.8,5.03-3.8a2.643,2.643,0,0,1,2.15,1,5.07,5.07,0,0,1,.82,3.189,30.722,30.722,0,0,1-1.25,6.989,26.938,26.938,0,0,0-1.17,6.2,5.668,5.668,0,0,0,1.4,3.975,5.139,5.139,0,0,0,3.98,1.529q4.365,0,8.39-4.281a33.558,33.558,0,0,0,6.59-10.92L3565.83,639a35.447,35.447,0,0,1-5.93,9.828q-3.585,4.151-6.24,4.15a2.019,2.019,0,0,1-1.71-.83,4.089,4.089,0,0,1-.63-2.49,10.058,10.058,0,0,1,.39-2.708q0.39-1.4,1.17-3.757c0.63-1.863,1.08-3.377,1.37-4.542a15.652,15.652,0,0,0,.43-3.67,10.139,10.139,0,0,0-1.48-5.547,4.936,4.936,0,0,0-4.45-2.315q-4.83,0-8.77,6.246a69.022,69.022,0,0,0-7.06,16.38,28.456,28.456,0,0,1-.16-2.97,58.663,58.663,0,0,1,.74-8.692,40.913,40.913,0,0,1,2.15-8.518,33.156,33.156,0,0,0,8.54-9.26,67.1,67.1,0,0,0,6.78-13.1q2.61-6.815,2.62-10.92a10.442,10.442,0,0,0-.67-3.8c-0.44-1.136-1.08-1.7-1.91-1.7q-3.27,0-8.89,10.658a153.012,153.012,0,0,0-10.02,24.286q-4.41,13.629-4.41,21.666a20.268,20.268,0,0,0,.9,6.377c0.59,1.8,1.36,2.708,2.3,2.708h0Zm5.77-30.314a88.5,88.5,0,0,1,4.76-13.1,94.8,94.8,0,0,1,5.65-10.876q2.7-4.324,3.55-4.325c0.21,0,.31.234,0.31,0.7q0,2.274-2.14,7.819a76.451,76.451,0,0,1-5.46,11.182,35.389,35.389,0,0,1-6.67,8.605h0Zm33.93,33.372a10.425,10.425,0,0,0,6.94-2.665,24.009,24.009,0,0,0,5.46-7.032,11.441,11.441,0,0,0,2.5.262,10.083,10.083,0,0,0,6.28-2.184q2.835-2.183,4.87-7.775L3595.71,639a28.117,28.117,0,0,1-4.1,6.9,7.328,7.328,0,0,1-5.89,2.621,7.523,7.523,0,0,1-2.03-.262,29.05,29.05,0,0,0,2.73-11.881,11.164,11.164,0,0,0-1.32-5.94,4.073,4.073,0,0,0-3.59-2.1,5.631,5.631,0,0,0-4.64,2.577,10.9,10.9,0,0,0-1.91,6.683,15.074,15.074,0,0,0,1.48,6.6,10.394,10.394,0,0,0,4.21,4.674,15.052,15.052,0,0,1-3.9,5.285,7.347,7.347,0,0,1-4.68,2.053q-4.29,0-4.29-8.212a46.2,46.2,0,0,1,1.37-10.57,43.931,43.931,0,0,1,2.38-7.863,32.793,32.793,0,0,0,8.5-9.26,67.321,67.321,0,0,0,6.71-13.1q2.565-6.815,2.57-10.92a10.443,10.443,0,0,0-.66-3.8c-0.45-1.136-1.06-1.7-1.84-1.7q-3.12,0-9,10.833a155.878,155.878,0,0,0-10.57,24.723q-4.68,13.89-4.68,22.189,0,5.156,2.02,8.081a6.852,6.852,0,0,0,6.01,2.927h0Zm1.79-33.372a83.551,83.551,0,0,1,4.61-12.8,93.367,93.367,0,0,1,5.73-11.051q2.76-4.455,3.63-4.456c0.2,0,.31.234,0.31,0.7q0,2.274-2.15,7.819a76.451,76.451,0,0,1-5.46,11.182,35.389,35.389,0,0,1-6.67,8.605h0Zm9.05,20.967a8.4,8.4,0,0,1-2.81-3.932,14.847,14.847,0,0,1-.93-5.154,10.041,10.041,0,0,1,.9-4.455c0.59-1.223,1.28-1.835,2.06-1.835,0.73,0,1.34.6,1.84,1.791a12.76,12.76,0,0,1,.74,4.761,22.551,22.551,0,0,1-1.8,8.824h0Zm15.37,10.133a8.4,8.4,0,0,0,5.5-2.446,40.917,40.917,0,0,0,6.28-7.687,15.1,15.1,0,0,0-.24,2.533,6.679,6.679,0,0,0,1.44,4.324,5.073,5.073,0,0,0,4.18,1.791,10.185,10.185,0,0,0,5.69-2.009,22.209,22.209,0,0,0,5.54-5.635,33.191,33.191,0,0,0,4.21-8.255l-0.78-.874a44.142,44.142,0,0,1-6.78,10.177q-3.435,3.627-5.7,3.626a2.148,2.148,0,0,1-1.99-1.18,5.357,5.357,0,0,1-.66-2.664,9.9,9.9,0,0,1,.78-3.625,47.172,47.172,0,0,1,2.11-4.5c0.1-.174.4-0.771,0.89-1.79a5.886,5.886,0,0,0,.74-2.228,1.662,1.662,0,0,0-1.05-1.441,6.785,6.785,0,0,0-2.07-.743,161.391,161.391,0,0,1-9.04,13.5q-4.215,5.548-7.34,5.547-2.1,0-2.1-3.407a26.864,26.864,0,0,1,2.53-10.221,37.59,37.59,0,0,1,6.32-10.221q3.78-4.279,7.22-4.28a3.251,3.251,0,0,1,2.88,1.354,6.059,6.059,0,0,1,.94,3.538,12.669,12.669,0,0,1-.39,3.057,4.184,4.184,0,0,0,2.81-.873,3.641,3.641,0,0,0,1.01-2.883,6.084,6.084,0,0,0-2.03-4.718,7.267,7.267,0,0,0-5.07-1.834q-4.83,0-9.9,4.455a36.922,36.922,0,0,0-8.39,10.833q-3.315,6.378-3.31,11.531a8.04,8.04,0,0,0,1.6,5.373,5.2,5.2,0,0,0,4.17,1.878h0Zm37.59,0.787a14.143,14.143,0,0,0,7.53-2.359,25.8,25.8,0,0,0,6.9-6.509,33.7,33.7,0,0,0,4.92-9.391l-1.02-.873a28.306,28.306,0,0,1-7.13,11.444q-4.65,4.367-9.4,4.368a4.8,4.8,0,0,1-4.37-2.053,9.356,9.356,0,0,1-1.33-5.2,24.718,24.718,0,0,1,2.07-9.26,31.78,31.78,0,0,1,5.07-8.605q3-3.539,5.66-3.538a1.541,1.541,0,0,1,1.32.524,2.8,2.8,0,0,1,.39,1.66,11.156,11.156,0,0,1-.86,4.149,5.056,5.056,0,0,1-2.02,2.752,2.712,2.712,0,0,0,2.26,1.311,3.176,3.176,0,0,0,2.84-1.879,8.976,8.976,0,0,0,1.06-4.5,7.91,7.91,0,0,0-1.29-4.586,4.787,4.787,0,0,0-4.25-1.878q-3.9,0-7.92,3.363a27.063,27.063,0,0,0-9.16,19.874c0,3.612.8,6.378,2.42,8.3a7.833,7.833,0,0,0,6.31,2.883h0Zm39-1.573a8.6,8.6,0,0,0,5.46-2.359,23.721,23.721,0,0,0,5.07-6.2,31.113,31.113,0,0,0,3.36-8.125l-0.78-.873q-5.7,14.24-11.55,14.239-2.655,0-4.17-4.018a31.614,31.614,0,0,1-1.91-7.251,11.948,11.948,0,0,0,4.48-1.092,12.257,12.257,0,0,0,4.61-3.407,8.5,8.5,0,0,0,1.98-5.722,7.98,7.98,0,0,0-2.02-5.5,6.367,6.367,0,0,0-4.92-2.271q-5.145,0-9.59,7.382a94.031,94.031,0,0,0-7.88,17.079,60.291,60.291,0,0,1,1.33-11.445,88.729,88.729,0,0,1,3.82-13.54,34.057,34.057,0,0,0,8.11-7.775,42.321,42.321,0,0,0,5.73-9.959,25.042,25.042,0,0,0,2.07-9.173,10.27,10.27,0,0,0-.7-4.019c-0.47-1.105-1.04-1.66-1.72-1.66q-2.73,0-8.54,10.615a154.907,154.907,0,0,0-10.45,24.155q-4.635,13.542-4.64,22.1a30.143,30.143,0,0,0,.47,6.115c0.31,1.4,1.06,2.1,2.26,2.1a3.2,3.2,0,0,0,1.52-.394,2.624,2.624,0,0,0,1.13-1.179l0.86-2.533a100.123,100.123,0,0,1,6.2-16.162q3.555-7.163,8.54-7.164a3.876,3.876,0,0,1,2.73,1.093,3.7,3.7,0,0,1,1.17,2.839,6.239,6.239,0,0,1-1.87,4.586,12.693,12.693,0,0,1-4.25,2.839,10.962,10.962,0,0,1-3.86.961,31.162,31.162,0,0,0,.82,6.814,17.749,17.749,0,0,0,2.61,6.29,5.313,5.313,0,0,0,4.52,2.621h0Zm-11.39-36.6a137.36,137.36,0,0,1,6.95-15.332q3.585-6.683,4.76-6.683c0.15,0,.23.263,0.23,0.787a17.923,17.923,0,0,1-1.52,6.115,43.48,43.48,0,0,1-4.25,7.95,36.788,36.788,0,0,1-6.17,7.163h0Z" transform="translate(-3419 -590)"/>
  <text id="MOVIES_._TELEVISION_._MUSIC" data-name="MOVIES . TELEVISION . MUSIC" class="cls-3" x="4.235" y="94.335">MOVIES . TELEVISION . MUSIC</text>
</svg>
